<svg width="15" height="15" viewBox="0 0 15 15" fill="none" xmlns="http://www.w3.org/2000/svg">
<g clip-path="url(#clip0)">
<path d="M14.9963 15.0001V14.9995H15V9.49826C15 6.80701 14.4207 4.73389 11.2744 4.73389C9.76191 4.73389 8.74691 5.56389 8.33254 6.35076H8.28879V4.98514H5.30566V14.9995H8.41191V10.0408C8.41191 8.73514 8.65941 7.47264 10.2763 7.47264C11.8694 7.47264 11.8932 8.96264 11.8932 10.1245V15.0001H14.9963Z" fill="white"/>
<path d="M0.24762 4.9856H3.35762V15H0.24762V4.9856Z" fill="white"/>
<path d="M1.80125 0C0.806875 0 0 0.806875 0 1.80125C0 2.79562 0.806875 3.61937 1.80125 3.61937C2.79562 3.61937 3.6025 2.79562 3.6025 1.80125C3.60188 0.806875 2.795 0 1.80125 0V0Z" fill="white"/>
</g>
<defs>
<clipPath id="clip0">
<rect width="15" height="15" fill="white"/>
</clipPath>
</defs>
</svg>
